<svg height="35" viewBox="0 0 178 40" fill="none" xmlns="http://www.w3.org/2000/svg">
<path d="M73.54 32.24C71.44 32.24 69.54 31.78 67.84 30.86C66.16 29.92 64.84 28.64 63.88 27.02C62.92 25.38 62.44 23.54 62.44 21.5C62.44 19.46 62.92 17.63 63.88 16.01C64.84 14.37 66.17 13.09 67.87 12.17C69.57 11.23 71.47 10.76 73.57 10.76C75.21 10.76 76.71 11.04 78.07 11.6C79.43 12.14 80.59 12.95 81.55 14.03L79.6 15.92C78.02 14.26 76.05 13.43 73.69 13.43C72.13 13.43 70.72 13.78 69.46 14.48C68.2 15.18 67.21 16.15 66.49 17.39C65.79 18.61 65.44 19.98 65.44 21.5C65.44 23.02 65.79 24.4 66.49 25.64C67.21 26.86 68.2 27.82 69.46 28.52C70.72 29.22 72.13 29.57 73.69 29.57C76.03 29.57 78 28.73 79.6 27.05L81.55 28.94C80.59 30.02 79.42 30.84 78.04 31.4C76.68 31.96 75.18 32.24 73.54 32.24ZM91.5459 32.18C89.9659 32.18 88.5459 31.83 87.2859 31.13C86.0259 30.43 85.0359 29.47 84.3159 28.25C83.6159 27.01 83.2659 25.61 83.2659 24.05C83.2659 22.49 83.6159 21.1 84.3159 19.88C85.0359 18.64 86.0259 17.68 87.2859 17C88.5459 16.3 89.9659 15.95 91.5459 15.95C93.1259 15.95 94.5359 16.3 95.7759 17C97.0359 17.68 98.0159 18.64 98.7159 19.88C99.4359 21.1 99.7959 22.49 99.7959 24.05C99.7959 25.61 99.4359 27.01 98.7159 28.25C98.0159 29.47 97.0359 30.43 95.7759 31.13C94.5359 31.83 93.1259 32.18 91.5459 32.18ZM91.5459 29.66C92.5659 29.66 93.4759 29.43 94.2759 28.97C95.0959 28.49 95.7359 27.83 96.1959 26.99C96.6559 26.13 96.8859 25.15 96.8859 24.05C96.8859 22.95 96.6559 21.98 96.1959 21.14C95.7359 20.28 95.0959 19.62 94.2759 19.16C93.4759 18.7 92.5659 18.47 91.5459 18.47C90.5259 18.47 89.6059 18.7 88.7859 19.16C87.9859 19.62 87.3459 20.28 86.8659 21.14C86.4059 21.98 86.1759 22.95 86.1759 24.05C86.1759 25.15 86.4059 26.13 86.8659 26.99C87.3459 27.83 87.9859 28.49 88.7859 28.97C89.6059 29.43 90.5259 29.66 91.5459 29.66ZM123.669 15.95C125.669 15.95 127.249 16.53 128.409 17.69C129.589 18.85 130.179 20.57 130.179 22.85V32H127.299V23.18C127.299 21.64 126.939 20.48 126.219 19.7C125.519 18.92 124.509 18.53 123.189 18.53C121.729 18.53 120.569 18.99 119.709 19.91C118.849 20.81 118.419 22.11 118.419 23.81V32H115.539V23.18C115.539 21.64 115.179 20.48 114.459 19.7C113.759 18.92 112.749 18.53 111.429 18.53C109.969 18.53 108.809 18.99 107.949 19.91C107.089 20.81 106.659 22.11 106.659 23.81V32H103.779V16.1H106.539V18.47C107.119 17.65 107.879 17.03 108.819 16.61C109.759 16.17 110.829 15.95 112.029 15.95C113.269 15.95 114.369 16.2 115.329 16.7C116.289 17.2 117.029 17.93 117.549 18.89C118.149 17.97 118.979 17.25 120.039 16.73C121.119 16.21 122.329 15.95 123.669 15.95ZM135.478 16.1H138.358V32H135.478V16.1ZM136.918 13.04C136.358 13.04 135.888 12.86 135.508 12.5C135.148 12.14 134.968 11.7 134.968 11.18C134.968 10.66 135.148 10.22 135.508 9.86C135.888 9.48 136.358 9.29 136.918 9.29C137.478 9.29 137.938 9.47 138.298 9.83C138.678 10.17 138.868 10.6 138.868 11.12C138.868 11.66 138.678 12.12 138.298 12.5C137.938 12.86 137.478 13.04 136.918 13.04ZM151.027 29.66C152.927 29.66 154.457 29.02 155.617 27.74L157.177 29.6C156.477 30.44 155.587 31.08 154.507 31.52C153.447 31.96 152.257 32.18 150.937 32.18C149.257 32.18 147.767 31.84 146.467 31.16C145.167 30.46 144.157 29.49 143.437 28.25C142.737 27.01 142.387 25.61 142.387 24.05C142.387 22.51 142.727 21.12 143.407 19.88C144.107 18.64 145.057 17.68 146.257 17C147.477 16.3 148.847 15.95 150.367 15.95C151.807 15.95 153.117 16.28 154.297 16.94C155.477 17.58 156.417 18.49 157.117 19.67C157.817 20.85 158.177 22.21 158.197 23.75L145.567 26.21C145.967 27.31 146.637 28.16 147.577 28.76C148.537 29.36 149.687 29.66 151.027 29.66ZM150.367 18.38C149.367 18.38 148.467 18.61 147.667 19.07C146.887 19.53 146.277 20.18 145.837 21.02C145.397 21.84 145.177 22.8 145.177 23.9V24.2L155.347 22.28C155.087 21.12 154.507 20.18 153.607 19.46C152.707 18.74 151.627 18.38 150.367 18.38ZM169.396 29.66C171.296 29.66 172.826 29.02 173.986 27.74L175.546 29.6C174.846 30.44 173.956 31.08 172.876 31.52C171.816 31.96 170.626 32.18 169.306 32.18C167.626 32.18 166.136 31.84 164.836 31.16C163.536 30.46 162.526 29.49 161.806 28.25C161.106 27.01 160.756 25.61 160.756 24.05C160.756 22.51 161.096 21.12 161.776 19.88C162.476 18.64 163.426 17.68 164.626 17C165.846 16.3 167.216 15.95 168.736 15.95C170.176 15.95 171.486 16.28 172.666 16.94C173.846 17.58 174.786 18.49 175.486 19.67C176.186 20.85 176.546 22.21 176.566 23.75L163.936 26.21C164.336 27.31 165.006 28.16 165.946 28.76C166.906 29.36 168.056 29.66 169.396 29.66ZM168.736 18.38C167.736 18.38 166.836 18.61 166.036 19.07C165.256 19.53 164.646 20.18 164.206 21.02C163.766 21.84 163.546 22.8 163.546 23.9V24.2L173.716 22.28C173.456 21.12 172.876 20.18 171.976 19.46C171.076 18.74 169.996 18.38 168.736 18.38Z" fill="#16184B"/>
<mask id="mask0_1208_3572" style="mask-type:alpha" maskUnits="userSpaceOnUse" x="0" y="0" width="51" height="40">
<path d="M7.96323 2.16361C10.0406 7.87636 10.5599 13.8199 10.5599 17.2245C2.66595 12.2388 0.173114 16.9937 0 19.9943C1.73114 29.1693 10.5599 23.1104 10.5599 23.1104C10.0406 31.7661 9.11732 33.8434 7.96323 37.4788C11.01 39.0022 18.8117 39.7293 22.3317 39.9024C17.7615 33.1163 21.9854 30.7274 25.2746 30.3811C33.2378 31.5929 30.468 38.6906 28.0444 39.9024C32.4761 40.4564 39.8161 38.5175 42.9322 37.4788C41.1318 34.5705 40.3932 26.6303 40.3355 23.1104C47.9525 27.7844 50.6069 22.9373 50.7223 19.9943C50.1683 12.1003 43.6823 14.6278 40.5086 16.8783C39.8161 12.3081 41.8358 5.16425 42.9322 2.16361C38.7775 -0.0522397 31.5067 -0.144567 28.3906 0.0862511C33.584 5.799 28.3906 9.66809 25.2746 9.43439C18.35 8.91505 20.2543 1.9905 22.5048 0.0862511C15.9265 0.259365 10.0983 1.35575 7.96323 2.16361Z" fill="#D7CCBE"/>
</mask>
<g mask="url(#mask0_1208_3572)">
<mask id="mask1_1208_3572" style="mask-type:alpha" maskUnits="userSpaceOnUse" x="-1" y="-1" width="53" height="53">
<rect x="-0.692383" y="-0.692383" width="51.9341" height="51.9341" fill="white"/>
</mask>
<g mask="url(#mask1_1208_3572)">
<path d="M52.0123 17.281L3.21343 59.6421L-9.67227 36.5373L52.0123 17.281Z" fill="#EC3B73"/>
<path d="M27.8712 37.8779L42.7133 51.1211H13.029L27.8712 37.8779Z" fill="#C13573"/>
<path d="M27.5573 38.04L56.2746 32.7675L49.6049 57.1812L27.5573 38.04Z" fill="#ED4A8F"/>
<path d="M27.4203 38.2152L53.017 15.6394L60.9502 31.8428L27.4203 38.2152Z" fill="#AC3C91"/>
<path d="M21.7775 12.9616L52.9358 17.2107L-1.57494 34.0226L21.7775 12.9616Z" fill="#4E2B90"/>
<path d="M-1.77023 9.37369L21.6639 13.0852L-0.53522 33.0678L-1.77023 9.37369Z" fill="#5FB6D5"/>
<path d="M46.959 -6.91358L65.5524 19.4089L21.6379 13.0219L46.959 -6.91358Z" fill="#933391"/>
<path d="M21.3911 13.311L8.34985 -6.2457L39.9432 -1.2119L21.3911 13.311Z" fill="#208FC2"/>
<path d="M21.56 13.3832L-9.26191 8.47249L4.28077 -12.6079L21.56 13.3832Z" fill="#F04791"/>
</g>
</g>
</svg>
